<svg id="图层_1" data-name="图层 1" xmlns="http://www.w3.org/2000/svg" viewBox="0 0 1920.01 289.87"><defs><style>.cls-1{fill:#4379ff;}.cls-2{fill:#23348a;}</style></defs><title>智能logo-2</title><path class="cls-1" d="M645.65,127H602.87V62H667v44.3q.69,21.44-21.39,20.72Zm5-22.15V73.44H619.27v42.15h21.39q10.7.72,10-10.72Zm-95.54,8.57q-10.7,15.72-42.77,23.58v-9.29q26.37-9.27,31.36-25H510.9V92h35.65V87.72a21.7,21.7,0,0,0,.71-5v-10H535.14Q528,79.88,510.19,83.44V74.87q17.8-6.44,20-23.58h15.69a66.15,66.15,0,0,1-3.57,11.43h49.19v10h-27.8v7.15A99.21,99.21,0,0,1,562.94,92h32.8v10.72H564.37q8.55,16.44,31.37,24.29v10q-29.94-7.85-40.64-23.58ZM654.2,192q.7,22.14-24.24,21.43H531.58V139.88H654.2V192Zm-17.82-40h-87v19.29h87V152Zm0,40V182h-87v19.29h76.29c7.59.47,11.16-2.61,10.69-9.29Zm197.48-66.44h-27.8q-20.68.72-20-20.72V52.72h17.11V80.58q25.66-5.72,33.51-21.43h17.11Q843.14,87,803.21,92v11.43c0,6.68,3.32,10,10,10h19.25q10,.72,9.27-10v-5h13.54v7.86q1.43,20-21.39,19.29ZM760.43,99.15q-19.24,3.59-67,3.58V89.87A122.86,122.86,0,0,0,723.36,52H744Q729.77,76.3,712,89.87a391.29,391.29,0,0,0,44.2-2.15,87.09,87.09,0,0,0-8.55-17.86h15q12.84,19.29,17.11,38.58H762.57a53.83,53.83,0,0,0-2.14-9.29Zm10,95.74q.71,20.72-22.1,20H735.48V202.75H744q10,.7,9.27-7.86V182.74H716.94v32.87H699.83v-100h70.58v79.3ZM753.3,127H716.94v17.14H753.3V127Zm0,27.86H716.94V172H753.3V154.88Zm32.8-22.15h17.11v30.72q24.94-5.7,34.22-23.57h17.11q-11.41,29.3-51.33,35V192c-.48,6.2,3.08,9,10.69,8.58h18.54c6.65.46,9.73-2.15,9.27-7.87V187h13.54v7.86q.71,19.29-20.67,18.57H806.06q-20.68.71-20-20V132.73ZM990,159.17q-12.13,34.29-48.48,57.15V202.75q39.91-35,38.5-92.88V96.3h19.25v14.28q-1.44,55,40.64,91.45v14.29q-37.08-22.87-49.91-57.15Zm27.09-77.88H976.45q-8.55,25-33.51,40.73V108.44q19.26-20.72,20.68-55.72h18.54a77.85,77.85,0,0,1-2.85,15.72h54.18V112h-16.4V81.29ZM892.33,127.73h17.11V94.87h17.11v32.86h18.53v12.15H926.55V165.6q4.28-.71,15-2.15c2.85-.46,5.22-.95,7.13-1.42v11.43a11.75,11.75,0,0,0-2.85.71,104.09,104.09,0,0,1-19.25,4.29V217H909.44V181.31q-14.28,1.44-35.65,1.43V168.46q16.4,0,35.65-1.43V139.88H878.07V127.73q10-26.42,14.26-47.15H875.21V67.72h20A142.87,142.87,0,0,0,897.32,52h17.82q-.72,3.59-2.14,10.72a29.69,29.69,0,0,0-.71,5h32.79V80.58H908.72q-5,21.44-16.39,47.15Zm331.52,17.15v12.86h-42.78V217h-19.25v-59.3H1105.5V144.88h56.32v-50h-26.38q-7.85,17.14-30.66,28.58V112q20-17.86,20.68-50h17.11a63.79,63.79,0,0,1-2.85,20h22.1V52.72h19.25V82h37.07V94.87h-37.07v50Zm-129,71.44h-18.53V110.58a94.17,94.17,0,0,1-20.68,10.72V109.87q26.37-16.43,34.22-56.44h18.54Q1102.64,77,1094.8,90.58V216.32Zm310.85-93.59v12.15h-20V217h-17.11V134.88h-27.09v11.43q2.83,50.73-36.36,71.44V204.17q20.67-15.69,19.25-57.86V134.88h-17.82V122.73h17.82V74.15h-13.55V61.29h90.55V74.15h-15.69v48.58Zm-37.08-48.58h-27.09v48.58h27.09V74.15Zm-97.67,34.29h28.52v70.73q.7,22.16-20,21.44h-27.09V134.16a109,109,0,0,1-12.83,10.72V132q19.24-22.86,23.53-57.15h-20.68V62.72h61.32V74.87h-22.82q-4.28,20-10,33.57Zm-2.85,81.45h7.84q9.25.72,8.56-9.29V119.87h-16.4v70Zm297.29,21.43h-11.4q-25,.7-24.24-22.86V146.31h-32.8q0,52.16-71.29,70.73V204.89q51.33-17.14,51.33-58.58h-42.78V133.45h42.78V115.59h20v17.86h52V187q-1.44,12.85,12.12,12.14,13.53,0,12.83-11.43v-6.43h15v7.86q.7,22.86-23.53,22.15ZM1514,88.44h18.54q13.53,20.73,52,24.29v10.72q-57-3.57-70.58-35Zm48.48-8.57H1447V97h-18.54V67.72h65.59v-15h21.39v15H1581V97h-18.54V79.87Zm-85.55,8.57h18.54q-15,32.15-70.58,35V112.73q38.49-3.57,52-24.29Zm260.23,80h-39.93v49.29h-20V168.46h-63.45V82h63.45V52h20V82h63.45v60.72q.7,26.45-23.52,25.73Zm-59.89-73.59h-44.92v60.72h44.92V94.87Zm64.88,0h-44.92v60.72h34.22q10.69,0,10.7-12.14V94.87Zm192.49,91.45a799,799,0,0,0-12.83-98.6h15a763.54,763.54,0,0,1,16.4,98.6ZM1923.24,177v10.71q.71,23.58-24.24,22.87h-41.35q-27.8,1.41-27.09-25.72V65.58h20V184.89q-.72,14.3,15,14.28h29.23q12.82,0,12.83-12.85V177Zm-49.9-124.31h15a541.32,541.32,0,0,1,13.54,78.58H1882.6a445.85,445.85,0,0,0-9.26-78.58ZM1789.21,187a664.13,664.13,0,0,0,12.12-97.88h15a713.11,713.11,0,0,1-8.55,97.88Z" transform="translate(-33.18 -43.42)"/><path class="cls-1" d="M529.36,306.15v5.78h-18v-5.78H517V260.09h-5.61V254.3h18v5.79h-5.62v46.06Zm37.77,5.78V288.46q0-13.09-9.54-13.1a10.37,10.37,0,0,0-8.17,3.72,13.81,13.81,0,0,0-3.22,9.38v23.47h-6.58V270.78h6.58v6.83h.16q4.65-7.78,13.47-7.79,6.74,0,10.31,4.36t3.57,12.6v25.15Zm30.72-6.43q1.39,1.77,4.65,1.77a6.84,6.84,0,0,0,4.29-1.37v5.63a12.64,12.64,0,0,1-6.14,1.29q-10.78,0-10.78-12.06V276.41h-7.06v-5.63h7.06v-10l6.57-2.14v12.18h10.35v5.63H596.44v23.18c0,2.77.47,4.73,1.41,5.91ZM621.23,293c.1,4.59,1.33,8.12,3.69,10.62s5.58,3.73,9.7,3.73a20.14,20.14,0,0,0,12.75-4.58V309q-5.42,3.94-14.31,3.94-8.71,0-13.68-5.61t-5-15.77q0-9.61,5.43-15.65a17.38,17.38,0,0,1,13.5-6.05q8.05,0,12.47,5.22t4.41,14.51V293Zm19.51-14.46a9.36,9.36,0,0,0-7.52-3.18,10.61,10.61,0,0,0-7.9,3.34,15.06,15.06,0,0,0-4,8.72h22.17c0-3.81-.94-6.77-2.74-8.88Zm21.07,33.39V251h6.57v60.92Zm21.53,0V251h6.58v60.92Zm28-52.84a4.39,4.39,0,0,1-6.07,0,4.09,4.09,0,0,1-1.25-3.06,4.23,4.23,0,0,1,4.25-4.3,4.22,4.22,0,0,1,3.07,1.23,4.29,4.29,0,0,1,0,6.09Zm.14,52.84h-6.57V270.78h6.57v41.15Zm28.36,19.37a29,29,0,0,1-13.32-2.89v-6.59a27.35,27.35,0,0,0,13.24,3.86q15.15,0,15.15-16.16V305h-.16q-4.68,7.88-14.11,7.88a15.42,15.42,0,0,1-12.34-5.49q-4.66-5.49-4.67-14.73,0-10.49,5-16.67t13.77-6.19q8.31,0,12.31,6.67h.16v-5.71h6.58v37.86q0,22.67-21.65,22.66Zm15.07-44a11.77,11.77,0,0,0-3.31-8.4,10.87,10.87,0,0,0-8.24-3.5,11.41,11.41,0,0,0-9.54,4.44q-3.45,4.44-3.45,12.44,0,6.87,3.31,11a10.68,10.68,0,0,0,8.76,4.12,11.41,11.41,0,0,0,9-3.94,14.63,14.63,0,0,0,3.47-10.08v-6.07ZM780.43,293c.11,4.59,1.33,8.12,3.69,10.62s5.59,3.73,9.7,3.73a20.14,20.14,0,0,0,12.75-4.58V309q-5.42,3.94-14.31,3.94-8.7,0-13.68-5.61t-5-15.77q0-9.61,5.43-15.65a17.4,17.4,0,0,1,13.5-6.05q8.06,0,12.47,5.22t4.41,14.51V293Zm19.51-14.46a9.35,9.35,0,0,0-7.52-3.18,10.62,10.62,0,0,0-7.9,3.34,15.12,15.12,0,0,0-4,8.72h22.18q0-5.71-2.75-8.88Zm48.58,33.39V288.46q0-13.09-9.54-13.1a10.37,10.37,0,0,0-8.17,3.72,13.81,13.81,0,0,0-3.22,9.38v23.47H821V270.78h6.58v6.83h.16q4.65-7.78,13.47-7.79,6.74,0,10.31,4.36t3.57,12.6v25.15Zm30.72-6.43q1.39,1.77,4.65,1.77a6.84,6.84,0,0,0,4.29-1.37v5.63a12.63,12.63,0,0,1-6.13,1.29q-10.8,0-10.79-12.06V276.41H864.2v-5.63h7.06v-10l6.57-2.14v12.18h10.35v5.63H877.83v23.18c0,2.77.47,4.73,1.41,5.91Zm76.23-30.62a23.65,23.65,0,0,0,3.91,2.57c1.54.83,3.31,1.75,5.31,2.73s4,2.09,5.86,3.22a27,27,0,0,1,4.85,3.74,16.63,16.63,0,0,1,3.31,4.54,12.7,12.7,0,0,1,1.22,5.7,14.52,14.52,0,0,1-1.66,7.22,13.69,13.69,0,0,1-4.49,4.8,19.72,19.72,0,0,1-6.52,2.67,35.55,35.55,0,0,1-7.78.83,33.74,33.74,0,0,1-3.37-.22c-1.34-.15-2.7-.37-4.09-.65a34,34,0,0,1-3.95-1,12.52,12.52,0,0,1-3-1.39v-8a15.46,15.46,0,0,0,3.27,2.16,25.69,25.69,0,0,0,4,1.63,32.16,32.16,0,0,0,4.23,1,23.7,23.7,0,0,0,3.93.36c4.15,0,7.24-.77,9.29-2.31a8.7,8.7,0,0,0,2-10.71,11.58,11.58,0,0,0-2.83-3.16,27.63,27.63,0,0,0-4.27-2.73q-2.46-1.31-5.31-2.75-3-1.53-5.61-3.1a24.29,24.29,0,0,1-4.54-3.45,14.64,14.64,0,0,1-3-4.28,13.37,13.37,0,0,1-1.1-5.61,13.2,13.2,0,0,1,1.73-6.85,14.85,14.85,0,0,1,4.53-4.8,20.53,20.53,0,0,1,6.4-2.82,29.47,29.47,0,0,1,7.31-.92q8.5,0,12.4,2V263q-5.1-3.53-13.08-3.53a21.31,21.31,0,0,0-4.41.46,12.42,12.42,0,0,0-3.93,1.51,8.61,8.61,0,0,0-2.81,2.69,7.18,7.18,0,0,0-1.08,4A8.44,8.44,0,0,0,953,272a9.35,9.35,0,0,0,2.43,2.93ZM1024.23,307q-5.57,5.92-14.9,5.93-9.11,0-14.54-5.77t-5.43-15.29q0-10.36,5.65-16.2t15.28-5.82q9.18,0,14.34,5.66t5.15,15.72q0,9.84-5.55,15.77Zm-4.62-27.43q-3.42-4.17-9.8-4.18a12.5,12.5,0,0,0-10,4.32q-3.69,4.32-3.69,11.92,0,7.31,3.73,11.53a12.69,12.69,0,0,0,10,4.22q6.38,0,9.8-4.14t3.43-11.77q0-7.72-3.43-11.9Zm38.24-23.83q-6.9,0-6.9,8.72v6.35h9.63v5.63H1051v35.52h-6.53V276.41h-7v-5.63h7v-6.67q0-6.47,3.73-10.23a12.57,12.57,0,0,1,9.3-3.76,12.91,12.91,0,0,1,4.77.73v5.94a8.77,8.77,0,0,0-4.37-1.08Zm21.53,49.79q1.41,1.77,4.65,1.77a6.89,6.89,0,0,0,4.3-1.37v5.63a12.64,12.64,0,0,1-6.14,1.29q-10.79,0-10.79-12.06V276.41h-7.05v-5.63h7.05v-10l6.58-2.14v12.18h10.35v5.63H1078v23.18c0,2.77.47,4.73,1.4,5.91Zm58.79,6.43h-6.82l-8.46-29.45a19.61,19.61,0,0,1-.64-3.82h-.16a18.21,18.21,0,0,1-.84,3.74l-9.18,29.53h-6.58l-12.43-41.15h6.9l8.5,31a18.51,18.51,0,0,1,.56,3.69h.32a17.29,17.29,0,0,1,.72-3.77l9.47-30.87h6l8.5,31a21.51,21.51,0,0,1,.6,3.69h.33a16.38,16.38,0,0,1,.68-3.69l8.34-31h6.5l-12.32,41.15Zm44.4,0V305.5h-.16q-4.31,7.39-12.64,7.4-6.13,0-9.6-3.26a11.3,11.3,0,0,1-3.47-8.64q0-11.53,13.55-13.42l12.32-1.73q0-10.49-8.47-10.49a20.21,20.21,0,0,0-13.39,5.06v-6.75a25.42,25.42,0,0,1,14-3.85q14.49,0,14.48,15.35v26.76Zm0-20.81-9.91,1.36a16.14,16.14,0,0,0-6.9,2.27q-2.33,1.63-2.32,5.77a6.27,6.27,0,0,0,2.14,4.92,8.26,8.26,0,0,0,5.72,1.91,10.59,10.59,0,0,0,8.08-3.43,12.34,12.34,0,0,0,3.19-8.71v-4.09Zm37-15c-2.81,0-5.15,1.32-7,4s-2.83,6.27-2.83,10.86v21h-6.57V270.78h6.57v8.48h.16a14.39,14.39,0,0,1,4.3-6.77,9.75,9.75,0,0,1,6.45-2.43,10.63,10.63,0,0,1,3.93.56v6.83a8.06,8.06,0,0,0-5-1.32ZM1237.38,293c.11,4.59,1.34,8.12,3.69,10.62s5.59,3.73,9.71,3.73a20.18,20.18,0,0,0,12.75-4.58V309q-5.41,3.94-14.32,3.94-8.7,0-13.67-5.61t-5-15.77q0-9.61,5.43-15.65a17.38,17.38,0,0,1,13.49-6.05c5.38,0,9.53,1.74,12.48,5.22s4.41,8.32,4.41,14.51V293Zm19.51-14.46a9.34,9.34,0,0,0-7.52-3.18,10.64,10.64,0,0,0-7.9,3.34,15.19,15.19,0,0,0-4,8.72h22.18c0-3.81-.94-6.77-2.75-8.88Zm101.42,1.12a15.83,15.83,0,0,1-4,3.36,20.58,20.58,0,0,1-5.27,2.15v.16a12.66,12.66,0,0,1,2.5,1.46,13.8,13.8,0,0,1,2,2,25.24,25.24,0,0,1,1.9,2.55c.63.95,1.33,2.05,2.11,3.31l10.79,17.32h-8l-9.63-16.15a34.92,34.92,0,0,0-2.57-3.84,14.91,14.91,0,0,0-2.54-2.59,8.91,8.91,0,0,0-2.81-1.47,11.44,11.44,0,0,0-3.39-.46h-5.53v24.51h-6.74V254.3h17.16a24.35,24.35,0,0,1,7,.95,15.69,15.69,0,0,1,5.54,2.87,13.42,13.42,0,0,1,3.66,4.8,15.86,15.86,0,0,1,1.33,6.74,16.26,16.26,0,0,1-.9,5.52,14.51,14.51,0,0,1-2.57,4.48ZM1351.73,263c-2-1.72-4.87-2.59-8.64-2.59h-9.22v20.9H1343a13.82,13.82,0,0,0,4.67-.76,10.82,10.82,0,0,0,3.71-2.19,10.09,10.09,0,0,0,2.45-3.5,11.7,11.7,0,0,0,.88-4.64,9,9,0,0,0-3-7.22Zm29.3,30c.1,4.59,1.33,8.12,3.69,10.62s5.58,3.73,9.7,3.73a20.14,20.14,0,0,0,12.75-4.58V309q-5.4,3.94-14.31,3.94-8.71,0-13.68-5.61t-5-15.77q0-9.61,5.43-15.65a17.38,17.38,0,0,1,13.5-6.05q8.05,0,12.47,5.22t4.41,14.51V293Zm19.51-14.46a9.36,9.36,0,0,0-7.52-3.18,10.62,10.62,0,0,0-7.9,3.34,15.06,15.06,0,0,0-4,8.72h22.17c0-3.81-.94-6.77-2.74-8.88Zm27.69,7.23a13,13,0,0,0,2.72,1.53c1.07.45,2.29.95,3.65,1.48q2.73,1.05,4.9,2.15a16.59,16.59,0,0,1,3.68,2.5,9.71,9.71,0,0,1,2.35,3.19,11.4,11.4,0,0,1-.52,9.61,11.51,11.51,0,0,1-3.59,3.73,16.2,16.2,0,0,1-5.17,2.21,25.62,25.62,0,0,1-6.14.73,23.32,23.32,0,0,1-11-2.45v-7.08a19.41,19.41,0,0,0,11.83,4q8.67,0,8.66-5.79a5,5,0,0,0-.74-2.79,7.4,7.4,0,0,0-2-2,15.31,15.31,0,0,0-3-1.59c-1.14-.46-2.36-.95-3.67-1.46a45.87,45.87,0,0,1-4.79-2.19A14.58,14.58,0,0,1,1422,289a9.42,9.42,0,0,1-2.09-3.16,11.36,11.36,0,0,1-.7-4.14,9.77,9.77,0,0,1,1.33-5.12,11.65,11.65,0,0,1,3.53-3.74,16.5,16.5,0,0,1,5-2.27,22.2,22.2,0,0,1,5.83-.76,23.58,23.58,0,0,1,9.55,1.84v6.68a18.53,18.53,0,0,0-10.43-3,12.23,12.23,0,0,0-3.33.42,8.18,8.18,0,0,0-2.54,1.19,5.51,5.51,0,0,0-1.65,1.83,4.9,4.9,0,0,0-.58,2.35,5.72,5.72,0,0,0,.58,2.69,6,6,0,0,0,1.71,1.93Zm33.88,7.23c.11,4.59,1.34,8.12,3.69,10.62s5.59,3.73,9.71,3.73a20.18,20.18,0,0,0,12.75-4.58V309q-5.41,3.94-14.32,3.94-8.7,0-13.67-5.61t-5-15.77q0-9.61,5.44-15.65a17.38,17.38,0,0,1,13.49-6.05c5.38,0,9.53,1.74,12.48,5.22s4.41,8.32,4.41,14.51V293Zm19.51-14.46a9.34,9.34,0,0,0-7.52-3.18,10.64,10.64,0,0,0-7.9,3.34,15.19,15.19,0,0,0-4,8.72h22.18c0-3.81-.94-6.77-2.75-8.88Zm43.89,33.39V305.5h-.16q-4.29,7.39-12.63,7.4-6.13,0-9.6-3.26a11.26,11.26,0,0,1-3.47-8.64q0-11.53,13.55-13.42l12.31-1.73q0-10.49-8.46-10.49a20.19,20.19,0,0,0-13.39,5.06v-6.75a25.4,25.4,0,0,1,13.95-3.85q14.49,0,14.48,15.35v26.76Zm0-20.81-9.9,1.36a16.14,16.14,0,0,0-6.9,2.27q-2.32,1.63-2.32,5.77a6.27,6.27,0,0,0,2.14,4.92,8.23,8.23,0,0,0,5.71,1.91,10.56,10.56,0,0,0,8.08-3.43,12.29,12.29,0,0,0,3.19-8.71v-4.09Zm37.06-15a8.38,8.38,0,0,0-7,4c-1.88,2.66-2.83,6.27-2.83,10.86v21h-6.57V270.78h6.57v8.48h.16a14.45,14.45,0,0,1,4.29-6.77,9.79,9.79,0,0,1,6.46-2.43,10.63,10.63,0,0,1,3.93.56v6.83a8.06,8.06,0,0,0-5-1.32Zm32-.77a13.23,13.23,0,0,0-10.33,4.52q-4,4.53-4,11.88t3.79,11.41a13.05,13.05,0,0,0,10.17,4.18,16.46,16.46,0,0,0,10.1-3.57V310a21.24,21.24,0,0,1-11.23,2.86q-8.77,0-14.17-5.73t-5.4-14.85q0-10.17,5.82-16.33t15.52-6.17a21.53,21.53,0,0,1,9.54,2v6.75a16.66,16.66,0,0,0-9.78-3.22Zm48.8,36.57V288.22q0-12.86-9.54-12.86a10.39,10.39,0,0,0-8.1,3.72,13.83,13.83,0,0,0-3.29,9.54v23.31h-6.58V251h6.58v26.6h.16q4.72-7.78,13.47-7.79,13.88,0,13.88,16.76v25.35Zm93.92-5.1a28.33,28.33,0,0,0,15-3.86v6.55q-6.37,3.38-15.89,3.38-12.26,0-19.65-7.92t-7.37-20.78q0-13.81,8.3-22.34t21-8.52a33.7,33.7,0,0,1,13.56,2.37v7.19a27.51,27.51,0,0,0-13.64-3.45q-9.9,0-16.06,6.63t-6.16,17.72q0,10.53,5.76,16.78t15.1,6.25ZM1768.81,293c.11,4.59,1.33,8.12,3.69,10.62s5.59,3.73,9.7,3.73a20.14,20.14,0,0,0,12.75-4.58V309q-5.4,3.94-14.31,3.94-8.7,0-13.68-5.61t-5-15.77q0-9.61,5.43-15.65a17.4,17.4,0,0,1,13.5-6.05q8.05,0,12.47,5.22t4.41,14.51V293Zm19.51-14.46a9.35,9.35,0,0,0-7.52-3.18,10.62,10.62,0,0,0-7.9,3.34,15.12,15.12,0,0,0-4,8.72h22.18q0-5.71-2.75-8.88Zm48.58,33.39V288.46q0-13.09-9.54-13.1a10.33,10.33,0,0,0-8.16,3.72,13.77,13.77,0,0,0-3.23,9.38v23.47h-6.58V270.78H1816v6.83h.16q4.65-7.78,13.47-7.79,6.74,0,10.31,4.36t3.57,12.6v25.15Zm30.72-6.43q1.39,1.77,4.65,1.77a6.84,6.84,0,0,0,4.29-1.37v5.63a12.63,12.63,0,0,1-6.13,1.29q-10.8,0-10.79-12.06V276.41h-7.06v-5.63h7.06v-10l6.57-2.14v12.18h10.35v5.63h-10.35v23.18c0,2.77.47,4.73,1.41,5.91ZM1891,293c.1,4.59,1.33,8.12,3.69,10.62s5.58,3.73,9.7,3.73a20.14,20.14,0,0,0,12.75-4.58V309q-5.42,3.94-14.31,3.94-8.7,0-13.68-5.61t-5-15.77q0-9.61,5.43-15.65a17.41,17.41,0,0,1,13.5-6.05q8.06,0,12.47,5.22t4.41,14.51V293Zm19.51-14.46a9.35,9.35,0,0,0-7.52-3.18,10.62,10.62,0,0,0-7.9,3.34,15.06,15.06,0,0,0-4,8.72h22.17c0-3.81-.94-6.77-2.74-8.88Zm37.51-2.41a8.36,8.36,0,0,0-7,4c-1.89,2.66-2.83,6.27-2.83,10.86v21h-6.58V270.78h6.58v8.48h.16a14.3,14.3,0,0,1,4.29-6.77,9.76,9.76,0,0,1,6.46-2.43,10.63,10.63,0,0,1,3.93.56v6.83a8.07,8.07,0,0,0-5-1.32Z" transform="translate(-33.18 -43.42)"/><polygon class="cls-1" points="135.74 0 91.5 0 78.64 9.51 0 144.24 70.44 144.88 149.08 9.51 135.74 0"/><polygon class="cls-1" points="248.78 0 293.5 0 306.36 9.51 227.81 144.72 192.61 84.06 235.92 9.51 248.78 0"/><polygon class="cls-1" points="157.28 144.88 192.84 204.91 149.08 280.24 136.06 289.88 91.66 289.88 78.64 280.24 157.28 144.88"/><polygon class="cls-2" points="149.08 9.51 192.61 84.06 157.28 144.88 113.86 70.13 149.08 9.51"/><polygon class="cls-2" points="306.3 9.51 385 144.88 314.5 144.88 271.08 70.13 306.3 9.51"/><polygon class="cls-2" points="70.44 144.88 0 144.24 78.64 280.24 114.61 218.32 70.44 144.88"/><polygon class="cls-2" points="227.81 144.72 192.84 204.91 235.92 280.24 272.63 217.06 227.81 144.72"/><polygon class="cls-1" points="314.5 144.88 385 144.88 306.36 280.24 293.33 289.88 249.43 289.88 235.92 280.24 314.5 144.88"/></svg>